
      <svg data-logo="logo" xmlns="http://www.w3.org/2000/svg" viewBox="0 0 191 43">
        <g id="logogram" transform="translate(0, 1) rotate(0) "><path fill-rule="evenodd" clip-rule="evenodd" d="M14.8333 6.49796L0.603516 20.6199C3.44972 23.4447 6.70108 25.8252 10.246 27.6877C11.2258 30.2671 12.7617 32.6861 14.8535 34.7621C22.7236 42.5725 35.4835 42.5725 43.3535 34.7621C45.4454 32.6861 46.9813 30.2671 47.9611 27.6875C51.5059 25.8252 54.7574 23.4447 57.6035 20.6199L43.3853 6.50945C43.3747 6.49889 43.3642 6.48834 43.3535 6.47779C35.4835 -1.33269 22.7236 -1.33269 14.8535 6.47779C14.8468 6.48452 14.84 6.49124 14.8333 6.49796ZM41.9919 30.2355C37.8452 31.6244 33.4921 32.3357 29.1035 32.3357C24.7149 32.3357 20.362 31.6244 16.2152 30.2355C16.6645 30.8271 17.1606 31.3948 17.7035 31.9337C23.9996 38.1821 34.2074 38.1821 40.5035 31.9337C41.0464 31.3948 41.5426 30.8271 41.9919 30.2355ZM17.9958 9.02337C19.065 9.72438 20.2018 10.3243 21.3914 10.8133C23.8364 11.8184 26.457 12.3357 29.1035 12.3357C31.75 12.3357 34.3706 11.8184 36.8156 10.8133C38.0052 10.3243 39.1421 9.72437 40.2114 9.02334C33.9938 3.15212 24.2132 3.15213 17.9958 9.02337Z" fill="#3B4158"/></g>
        <g id="logotype" transform="translate(64, 8)"><path fill="#111111" d="M13.52 27L8.31 27L8.31 1.54L25.06 1.54L25.06 5.86L13.52 5.86L13.52 12.97L23.93 12.97L23.93 17.22L13.52 17.22L13.52 27ZM31.58 27L26.45 27L26.45 7.89L31.58 7.89L31.58 27ZM29.02 5.40L29.02 5.40Q27.86 5.40 27.04 4.63Q26.22 3.86 26.22 2.77L26.22 2.77Q26.22 1.67 27.04 0.90Q27.86 0.13 29.02 0.13L29.02 0.13Q30.18 0.13 31.01 0.90Q31.84 1.66 31.84 2.77L31.84 2.77Q31.84 3.86 31.01 4.63Q30.18 5.40 29.02 5.40ZM38.79 15.94L38.79 15.94L38.79 27L33.66 27L33.66 7.89L38.50 7.89L38.59 12.66L38.28 12.66Q39.03 10.27 40.56 8.96Q42.09 7.65 44.52 7.65L44.52 7.65Q46.50 7.65 47.97 8.52Q49.44 9.38 50.26 11.00Q51.08 12.61 51.08 14.85L51.08 14.85L51.08 27L45.95 27L45.95 15.74Q45.95 13.96 45.04 12.95Q44.12 11.94 42.50 11.94L42.50 11.94Q41.42 11.94 40.58 12.41Q39.73 12.88 39.26 13.77Q38.79 14.66 38.79 15.94ZM58.51 27.38L58.51 27.38Q56.70 27.38 55.26 26.74Q53.81 26.09 52.98 24.82Q52.15 23.55 52.15 21.65L52.15 21.65Q52.15 20.06 52.74 18.98Q53.33 17.91 54.35 17.26Q55.37 16.61 56.66 16.27Q57.95 15.93 59.37 15.79L59.37 15.79Q61.02 15.62 62.04 15.47Q63.06 15.33 63.53 15.01Q64.00 14.70 64.00 14.08L64.00 14.08L64.00 13.99Q64.00 13.17 63.65 12.61Q63.31 12.05 62.65 11.75Q61.98 11.45 61.01 11.45L61.01 11.45Q60.01 11.45 59.28 11.75Q58.55 12.05 58.08 12.54Q57.62 13.04 57.40 13.65L57.40 13.65L52.70 12.87Q53.20 11.21 54.34 10.05Q55.49 8.88 57.19 8.27Q58.89 7.65 61.01 7.65L61.01 7.65Q62.56 7.65 64.01 8.02Q65.47 8.39 66.62 9.16Q67.77 9.93 68.45 11.16Q69.12 12.39 69.12 14.13L69.12 14.13L69.12 27L64.27 27L64.27 24.35L64.10 24.35Q63.64 25.24 62.87 25.91Q62.10 26.59 61.01 26.98Q59.93 27.38 58.51 27.38ZM59.96 23.77L59.96 23.77Q61.18 23.77 62.09 23.29Q63.01 22.81 63.52 21.99Q64.03 21.17 64.03 20.16L64.03 20.16L64.03 18.10Q63.81 18.27 63.35 18.40Q62.89 18.54 62.32 18.64Q61.76 18.75 61.21 18.83Q60.66 18.92 60.24 18.97L60.24 18.97Q59.30 19.10 58.58 19.41Q57.86 19.72 57.47 20.22Q57.08 20.73 57.08 21.51L57.08 21.51Q57.08 22.25 57.45 22.75Q57.83 23.26 58.47 23.51Q59.11 23.77 59.96 23.77ZM76.35 15.94L76.35 15.94L76.35 27L71.22 27L71.22 7.89L76.06 7.89L76.15 12.66L75.84 12.66Q76.59 10.27 78.12 8.96Q79.65 7.65 82.08 7.65L82.08 7.65Q84.06 7.65 85.53 8.52Q87.00 9.38 87.82 11.00Q88.64 12.61 88.64 14.85L88.64 14.85L88.64 27L83.51 27L83.51 15.74Q83.51 13.96 82.60 12.95Q81.68 11.94 80.06 11.94L80.06 11.94Q78.98 11.94 78.14 12.41Q77.29 12.88 76.82 13.77Q76.35 14.66 76.35 15.94ZM99.28 27.38L99.28 27.38Q96.40 27.38 94.30 26.14Q92.21 24.90 91.07 22.68Q89.94 20.47 89.94 17.53L89.94 17.53Q89.94 14.56 91.07 12.35Q92.21 10.13 94.30 8.89Q96.40 7.65 99.28 7.65L99.28 7.65Q100.98 7.65 102.41 8.10Q103.85 8.54 104.96 9.36Q106.07 10.18 106.79 11.36Q107.50 12.54 107.78 14.01L107.78 14.01L103.01 14.90Q102.85 14.15 102.53 13.56Q102.21 12.97 101.74 12.55Q101.28 12.13 100.68 11.91Q100.07 11.69 99.33 11.69L99.33 11.69Q97.97 11.69 97.04 12.42Q96.10 13.16 95.63 14.47Q95.16 15.79 95.16 17.52L95.16 17.52Q95.16 19.22 95.63 20.53Q96.10 21.84 97.04 22.59Q97.97 23.34 99.33 23.34L99.33 23.34Q100.07 23.34 100.68 23.11Q101.30 22.88 101.78 22.45Q102.26 22.01 102.58 21.39Q102.91 20.78 103.04 20.01L103.04 20.01L107.81 20.88Q107.54 22.40 106.82 23.59Q106.10 24.78 104.99 25.63Q103.88 26.49 102.44 26.93Q100.99 27.38 99.28 27.38ZM117.69 27.38L117.69 27.38Q114.76 27.38 112.65 26.18Q110.53 24.98 109.39 22.78Q108.25 20.57 108.25 17.55L108.25 17.55Q108.25 14.59 109.38 12.37Q110.51 10.15 112.58 8.90Q114.64 7.65 117.43 7.65L117.43 7.65Q119.31 7.65 120.93 8.25Q122.56 8.85 123.79 10.06Q125.02 11.26 125.71 13.07Q126.40 14.88 126.40 17.34L126.40 17.34L126.40 18.78L110.36 18.78L110.36 15.57L123.89 15.57L121.50 16.42Q121.50 14.93 121.05 13.83Q120.59 12.73 119.69 12.12Q118.80 11.52 117.46 11.52L117.46 11.52Q116.15 11.52 115.22 12.13Q114.29 12.75 113.81 13.80Q113.33 14.85 113.33 16.20L113.33 16.20L113.33 18.47Q113.33 20.13 113.88 21.26Q114.44 22.39 115.44 22.95Q116.44 23.51 117.77 23.51L117.77 23.51Q118.68 23.51 119.41 23.26Q120.15 23.00 120.67 22.50Q121.19 21.99 121.46 21.26L121.46 21.26L126.11 22.13Q125.65 23.70 124.51 24.89Q123.36 26.08 121.64 26.73Q119.93 27.38 117.69 27.38Z"/></g>
        
      </svg>
    